<?xml version="1.0" standalone="no"?>
<!DOCTYPE svg PUBLIC "-//W3C//DTD SVG 20010904//EN"
 "http://www.w3.org/TR/2001/REC-SVG-20010904/DTD/svg10.dtd">
<svg version="1.0" xmlns="http://www.w3.org/2000/svg"
 width="359.000000pt" height="359.000000pt" viewBox="0 0 359.000000 359.000000"
 preserveAspectRatio="xMidYMid meet">
<metadata>
Created by potrace 1.11, written by Peter Selinger 2001-2013
</metadata>
<g transform="translate(0.000000,359.000000) scale(0.100000,-0.100000)"
fill="#000000" stroke="none">
<path d="M1534 2891 c-27 -13 -50 -33 -66 -60 l-24 -41 -30 31 c-50 53 -91 72
-153 73 -69 0 -100 -15 -206 -102 -172 -141 -198 -174 -198 -257 0 -59 10 -82
70 -151 23 -28 43 -54 43 -57 0 -3 -156 -7 -347 -9 -334 -3 -350 -4 -388 -24
-46 -25 -66 -45 -89 -91 -20 -39 -23 -257 -4 -298 9 -19 9 -28 0 -37 -13 -13
-17 -262 -6 -293 4 -8 20 -23 36 -31 27 -14 44 -13 191 6 111 15 173 28 197
42 32 19 35 19 47 2 32 -44 22 -49 -144 -74 -87 -13 -162 -27 -167 -31 -5 -5
29 -59 78 -125 l88 -116 -46 -141 c-25 -78 -44 -143 -42 -144 2 -2 148 17 324
43 l322 46 109 -95 c183 -157 365 -278 570 -379 l105 -51 130 66 c219 111 412
242 565 383 l73 68 122 -12 c66 -7 198 -24 291 -38 94 -13 189 -27 212 -31
l41 -5 -44 138 c-24 76 -44 143 -44 149 0 5 39 62 85 125 58 78 81 116 72 121
-6 4 -83 17 -169 30 -87 12 -158 25 -158 28 0 3 4 12 9 20 8 12 28 11 139 -3
71 -9 151 -16 177 -16 67 0 127 36 154 93 20 40 21 60 21 284 0 232 -1 241
-23 284 -16 29 -40 54 -72 74 l-48 30 -176 -1 c-97 0 -183 -1 -191 -1 -8 -1
-72 1 -142 4 l-128 4 23 42 c19 36 22 57 22 147 0 96 -2 110 -28 159 -81 153
-257 243 -419 213 -33 -6 -79 -20 -101 -31 l-40 -20 -27 29 c-14 15 -45 34
-67 40 -65 20 -104 6 -183 -61 l-70 -61 -56 48 c-99 88 -142 100 -220 65z
m179 -151 c47 -44 90 -80 97 -80 7 0 50 36 96 80 88 84 110 94 152 64 43 -30
30 -61 -65 -156 l-86 -87 96 -91 c85 -81 97 -96 97 -126 0 -42 -36 -70 -77
-59 -15 3 -69 47 -120 98 l-93 91 -99 -97 c-103 -102 -125 -112 -169 -81 -15
10 -22 25 -22 49 0 29 12 44 97 124 l97 91 -87 88 c-95 95 -108 126 -65 156
41 29 63 19 151 -64z m-310 -37 c110 -109 123 -130 107 -179 -13 -38 -217
-229 -269 -251 -58 -25 -83 -11 -187 105 -53 58 -100 117 -105 130 -18 48 5
84 113 173 198 164 198 164 341 22z m1079 69 c150 -66 223 -240 156 -370 -79
-154 -307 -173 -443 -37 -54 53 -78 107 -83 183 -8 110 56 204 160 238 56 18
152 12 210 -14z m-1894 -639 l3 -93 -28 0 c-15 0 -45 -3 -65 -6 l-38 -7 0 43
c0 34 -3 41 -16 36 -9 -3 -36 -6 -60 -6 -43 0 -44 -1 -44 -33 0 -32 3 -34 123
-93 l122 -60 3 -79 c3 -89 -13 -135 -58 -166 -15 -11 -75 -26 -153 -39 -185
-29 -167 -37 -167 79 l0 99 31 6 c17 3 47 6 65 6 32 0 34 -2 34 -35 l0 -35 48
6 c69 8 72 10 72 46 0 32 -2 34 -123 88 l-122 56 0 101 c0 163 27 183 240 180
l130 -2 3 -92z m400 40 l3 -53 -59 0 -59 0 -6 -82 c-4 -46 -7 -143 -7 -215 l0
-133 -29 0 c-16 0 -43 -3 -60 -6 l-31 -6 0 216 0 216 -65 0 -65 0 0 53 c0 30
3 57 7 61 4 3 88 5 187 4 l181 -3 3 -52z m317 47 c22 -5 50 -21 63 -35 21 -25
22 -33 22 -241 l0 -214 -65 0 -65 0 0 98 0 97 -60 -3 -60 -4 0 -98 0 -97 -31
-7 c-17 -3 -47 -6 -66 -6 l-34 0 3 224 c3 222 3 225 27 250 14 15 39 30 55 35
41 12 161 13 211 1z m294 -100 l56 -105 5 105 5 105 63 3 62 3 0 -246 0 -245
-64 0 -64 0 -52 98 c-29 53 -56 101 -61 107 -5 5 -9 -34 -9 -98 l0 -107 -44 0
c-24 0 -51 -3 -60 -6 -14 -6 -16 20 -16 245 l0 252 62 -3 61 -3 56 -105z m513
100 c20 -6 46 -22 58 -37 18 -24 20 -39 20 -208 l0 -183 -31 -26 c-30 -26 -33
-26 -185 -26 l-154 0 0 245 0 245 128 0 c70 0 144 -5 164 -10z m397 0 c19 -5
45 -19 58 -32 23 -21 23 -23 23 -250 l0 -228 -29 0 c-16 0 -43 3 -60 6 l-31 7
0 97 0 98 -60 4 -60 3 0 -97 0 -98 -65 0 -65 0 0 214 c0 200 1 215 21 240 11
14 35 30 52 35 43 12 174 13 216 1z m403 0 c66 -19 79 -48 79 -175 0 -60 3
-170 6 -242 l5 -133 -35 0 c-19 0 -49 3 -66 6 l-31 7 0 107 0 108 -60 4 -60 3
0 -106 0 -106 -52 4 c-29 3 -59 6 -65 8 -10 3 -13 65 -13 265 l0 260 128 0
c70 0 144 -5 164 -10z m400 0 c20 -6 46 -22 58 -37 19 -24 20 -39 20 -268 l0
-243 -32 -27 c-36 -30 -23 -30 -230 1 l-108 17 0 277 c0 152 3 280 7 283 10
11 244 8 285 -3z m-917 -580 c176 -13 444 -39 477 -46 22 -4 27 -10 24 -27 -3
-12 -8 -39 -11 -59 -7 -44 -20 -38 163 -64 107 -15 121 -19 108 -32 -12 -12
-29 -13 -118 -2 -56 6 -115 14 -129 17 -37 7 -41 -10 -40 -181 l1 -148 -22 5
c-13 3 -59 9 -103 13 -127 11 -127 15 0 64 79 30 115 48 115 59 0 13 -2 13 -9
2 -7 -11 -34 -11 -167 3 -347 34 -478 40 -889 40 -413 0 -600 -10 -942 -47
l-108 -12 113 -44 c62 -24 111 -46 107 -49 -5 -5 -197 -30 -242 -31 -24 -1
-84 44 -80 60 1 6 -18 26 -43 46 -25 20 -31 23 -15 8 16 -16 30 -36 30 -45 0
-20 24 -52 35 -45 4 2 15 -4 25 -15 17 -19 17 -20 -2 -20 -12 0 -40 24 -71 58
-42 49 -50 64 -46 88 4 24 -6 44 -55 109 -33 44 -59 81 -58 82 1 1 56 9 122
18 181 24 163 15 153 81 -5 31 -7 59 -4 61 12 12 389 48 651 63 193 10 849 4
1030 -10z m-1759 -478 c-3 -3 0 -12 6 -21 10 -13 10 -14 -2 -4 -16 15 -23 46
-8 37 5 -3 7 -9 4 -12z m1060 -103 c-5 -27 -3 -30 17 -27 16 2 23 11 25 31 2
15 9 27 16 27 8 0 11 -10 8 -30 -3 -18 0 -30 7 -30 6 0 11 -4 11 -10 0 -5 -7
-10 -15 -10 -8 0 -15 -4 -15 -9 0 -5 -3 -16 -6 -25 -4 -11 -1 -16 10 -16 23 0
20 -17 -4 -23 -12 -3 -20 -14 -20 -26 0 -12 -6 -21 -14 -21 -9 0 -12 8 -8 25
3 20 0 25 -16 25 -13 0 -22 -9 -26 -25 -4 -14 -11 -25 -17 -25 -7 0 -9 10 -5
24 4 15 1 26 -7 30 -8 3 -7 8 6 16 18 12 24 50 7 50 -5 0 -10 5 -10 10 0 6 6
10 14 10 7 0 16 14 20 30 3 17 11 30 17 30 8 0 9 -11 5 -31z m144 16 c11 -13
14 -13 27 0 16 16 70 20 91 7 9 -6 12 -33 10 -98 l-3 -89 -45 -3 c-33 -3 -47
1 -57 14 -12 16 -13 16 -13 1 0 -10 -8 -17 -20 -17 -18 0 -20 7 -20 75 0 58
-4 77 -15 81 -8 4 -15 15 -15 25 0 23 42 26 60 4z"/>
<path d="M1168 2614 l-78 -66 62 -68 c71 -78 54 -80 163 18 l59 52 -64 65 -65
65 -77 -66z"/>
<path d="M2284 2647 c-68 -62 -53 -155 35 -214 41 -28 110 -31 151 -6 120 70
44 253 -105 253 -37 0 -52 -6 -81 -33z"/>
<path d="M1140 2075 l0 -45 60 0 60 0 0 45 0 45 -60 0 -60 0 0 -45z"/>
<path d="M1944 2068 c3 -29 6 -92 6 -140 l0 -88 55 0 55 0 0 140 0 140 -61 0
-62 0 7 -52z"/>
<path d="M2350 2075 l0 -45 60 0 60 0 0 45 0 45 -60 0 -60 0 0 -45z"/>
<path d="M2750 2072 c0 -57 7 -62 76 -62 l44 0 0 50 0 50 -44 0 c-24 0 -51 3
-60 6 -13 5 -16 -2 -16 -44z"/>
<path d="M3150 1933 l0 -173 29 0 c16 0 43 -3 60 -6 l31 -6 0 175 0 175 -60 4
-60 3 0 -172z"/>
<path d="M1648 1533 c6 -2 18 -2 25 0 6 3 1 5 -13 5 -14 0 -19 -2 -12 -5z"/>
<path d="M1768 1533 c6 -2 18 -2 25 0 6 3 1 5 -13 5 -14 0 -19 -2 -12 -5z"/>
<path d="M1868 1533 c6 -2 18 -2 25 0 6 3 1 5 -13 5 -14 0 -19 -2 -12 -5z"/>
<path d="M1398 1523 c12 -2 32 -2 45 0 12 2 2 4 -23 4 -25 0 -35 -2 -22 -4z"/>
<path d="M1558 1523 c7 -3 16 -2 19 1 4 3 -2 6 -13 5 -11 0 -14 -3 -6 -6z"/>
<path d="M1168 1513 c7 -3 16 -2 19 1 4 3 -2 6 -13 5 -11 0 -14 -3 -6 -6z"/>
<path d="M2388 1513 c7 -3 16 -2 19 1 4 3 -2 6 -13 5 -11 0 -14 -3 -6 -6z"/>
<path d="M2418 1483 c6 -2 18 -2 25 0 6 3 1 5 -13 5 -14 0 -19 -2 -12 -5z"/>
<path d="M1388 1433 c6 -2 18 -2 25 0 6 3 1 5 -13 5 -14 0 -19 -2 -12 -5z"/>
<path d="M1168 1423 c6 -2 18 -2 25 0 6 3 1 5 -13 5 -14 0 -19 -2 -12 -5z"/>
<path d="M2395 1420 c3 -5 8 -10 11 -10 2 0 4 5 4 10 0 6 -5 10 -11 10 -5 0
-7 -4 -4 -10z"/>
<path d="M1215 1340 l-30 -8 27 -1 c15 0 30 4 33 9 3 6 5 9 3 9 -2 -1 -16 -5
-33 -9z"/>
<path d="M1433 1343 c9 -2 23 -2 30 0 6 3 -1 5 -18 5 -16 0 -22 -2 -12 -5z"/>
<path d="M1608 1343 c6 -2 18 -2 25 0 6 3 1 5 -13 5 -14 0 -19 -2 -12 -5z"/>
<path d="M1818 1343 c6 -2 18 -2 25 0 6 3 1 5 -13 5 -14 0 -19 -2 -12 -5z"/>
<path d="M1988 1343 c6 -2 18 -2 25 0 6 3 1 5 -13 5 -14 0 -19 -2 -12 -5z"/>
<path d="M2108 1343 c6 -2 18 -2 25 0 6 3 1 5 -13 5 -14 0 -19 -2 -12 -5z"/>
<path d="M2328 1338 c6 -6 18 -8 28 -6 14 3 12 5 -9 10 -19 3 -25 2 -19 -4z"/>
<path d="M2208 1333 c7 -3 16 -2 19 1 4 3 -2 6 -13 5 -11 0 -14 -3 -6 -6z"/>
<path d="M1128 1323 c7 -3 16 -2 19 1 4 3 -2 6 -13 5 -11 0 -14 -3 -6 -6z"/>
<path d="M1687 1003 c-15 -15 -7 -43 13 -43 11 0 20 4 20 9 0 5 3 16 6 25 4
11 0 16 -13 16 -11 0 -23 -3 -26 -7z"/>
<path d="M1903 1063 c9 -2 23 -2 30 0 6 3 -1 5 -18 5 -16 0 -22 -2 -12 -5z"/>
<path d="M1823 980 c0 -41 2 -58 4 -37 2 20 2 54 0 75 -2 20 -4 3 -4 -38z"/>
<path d="M1872 1025 c0 -16 2 -22 5 -12 2 9 2 23 0 30 -3 6 -5 -1 -5 -18z"/>
<path d="M1900 1030 c0 -11 7 -20 15 -20 8 0 15 9 15 20 0 11 -7 20 -15 20 -8
0 -15 -9 -15 -20z"/>
<path d="M1952 1025 c0 -16 2 -22 5 -12 2 9 2 23 0 30 -3 6 -5 -1 -5 -18z"/>
<path d="M1898 983 c12 -2 30 -2 40 0 9 3 -1 5 -23 4 -22 0 -30 -2 -17 -4z"/>
<path d="M1872 945 c0 -16 2 -22 5 -12 2 9 2 23 0 30 -3 6 -5 -1 -5 -18z"/>
<path d="M1900 950 c0 -11 7 -20 15 -20 8 0 15 9 15 20 0 11 -7 20 -15 20 -8
0 -15 -9 -15 -20z"/>
<path d="M1952 945 c0 -16 2 -22 5 -12 2 9 2 23 0 30 -3 6 -5 -1 -5 -18z"/>
</g>
</svg>
